<mxfile host="app.diagrams.net" modified="2023-05-19T06:24:14.526Z" agent="Mozilla/5.0 (Windows NT 10.0; Win64; x64) AppleWebKit/537.36 (KHTML, like Gecko) Chrome/113.0.0.0 Safari/537.36" etag="VyR2dkQ7sm-z9datPGks" version="21.2.1" type="github">
  <diagram name="第 1 页" id="dnGYS2HbHR0bqvyyn-j1">
    <mxGraphModel dx="3404" dy="2084" grid="1" gridSize="10" guides="1" tooltips="1" connect="1" arrows="1" fold="1" page="1" pageScale="1" pageWidth="827" pageHeight="1169" math="0" shadow="0">
      <root>
        <mxCell id="0" />
        <mxCell id="1" parent="0" />
        <mxCell id="c_rGyp08pGOtF22zNN7b-1" value="&lt;font style=&quot;font-size: 23px;&quot;&gt;店铺&lt;/font&gt;" style="rounded=0;whiteSpace=wrap;html=1;fontColor=default;fontSize=23;" parent="1" vertex="1">
          <mxGeometry x="156" y="529" width="100" height="40" as="geometry" />
        </mxCell>
        <mxCell id="c_rGyp08pGOtF22zNN7b-2" value="&lt;span style=&quot;font-size: 23px;&quot;&gt;banner组&lt;br style=&quot;font-size: 23px;&quot;&gt;&lt;/span&gt;" style="rounded=0;whiteSpace=wrap;html=1;fontColor=default;fontSize=23;" parent="1" vertex="1">
          <mxGeometry x="1056" y="529" width="100" height="40" as="geometry" />
        </mxCell>
        <mxCell id="c_rGyp08pGOtF22zNN7b-3" value="&lt;span style=&quot;font-size: 23px;&quot;&gt;用户&lt;/span&gt;" style="rounded=0;whiteSpace=wrap;html=1;fontColor=default;fontSize=23;" parent="1" vertex="1">
          <mxGeometry x="-228" y="867" width="100" height="40" as="geometry" />
        </mxCell>
        <mxCell id="c_rGyp08pGOtF22zNN7b-4" value="&lt;font style=&quot;font-size: 23px;&quot;&gt;订单&lt;/font&gt;" style="rounded=0;whiteSpace=wrap;html=1;fontColor=default;fontSize=23;" parent="1" vertex="1">
          <mxGeometry x="153" y="867" width="100" height="40" as="geometry" />
        </mxCell>
        <mxCell id="c_rGyp08pGOtF22zNN7b-5" value="&lt;span style=&quot;font-size: 23px;&quot;&gt;banner&lt;/span&gt;" style="rounded=0;whiteSpace=wrap;html=1;fontColor=default;fontSize=23;" parent="1" vertex="1">
          <mxGeometry x="588" y="527" width="100" height="40" as="geometry" />
        </mxCell>
        <mxCell id="c_rGyp08pGOtF22zNN7b-6" value="&lt;font style=&quot;font-size: 23px;&quot;&gt;管理员&lt;/font&gt;" style="rounded=0;whiteSpace=wrap;html=1;fontColor=default;fontSize=23;" parent="1" vertex="1">
          <mxGeometry x="-228" y="529" width="100" height="40" as="geometry" />
        </mxCell>
        <mxCell id="c_rGyp08pGOtF22zNN7b-7" value="属于" style="rhombus;whiteSpace=wrap;html=1;fontSize=23;" parent="1" vertex="1">
          <mxGeometry x="-218" y="360" width="80" height="80" as="geometry" />
        </mxCell>
        <mxCell id="c_rGyp08pGOtF22zNN7b-8" value="" style="endArrow=none;html=1;rounded=0;entryX=0.5;entryY=1;entryDx=0;entryDy=0;fontSize=23;" parent="1" edge="1">
          <mxGeometry width="50" height="50" relative="1" as="geometry">
            <mxPoint x="203" y="486" as="sourcePoint" />
            <mxPoint x="203" y="416" as="targetPoint" />
            <Array as="points" />
          </mxGeometry>
        </mxCell>
        <mxCell id="c_rGyp08pGOtF22zNN7b-9" value="" style="endArrow=none;html=1;rounded=0;fontSize=23;" parent="1" edge="1">
          <mxGeometry width="50" height="50" relative="1" as="geometry">
            <mxPoint x="204" y="531" as="sourcePoint" />
            <mxPoint x="-180" y="441" as="targetPoint" />
            <Array as="points">
              <mxPoint x="204" y="480" />
              <mxPoint x="-180" y="480" />
            </Array>
          </mxGeometry>
        </mxCell>
        <mxCell id="c_rGyp08pGOtF22zNN7b-10" value="拥有" style="rhombus;whiteSpace=wrap;html=1;fontSize=23;" parent="1" vertex="1">
          <mxGeometry x="-33" y="510" width="80" height="80" as="geometry" />
        </mxCell>
        <mxCell id="c_rGyp08pGOtF22zNN7b-11" value="" style="endArrow=none;html=1;rounded=0;entryX=1;entryY=0.5;entryDx=0;entryDy=0;exitX=0;exitY=0.5;exitDx=0;exitDy=0;fontSize=23;" parent="1" source="c_rGyp08pGOtF22zNN7b-10" target="c_rGyp08pGOtF22zNN7b-6" edge="1">
          <mxGeometry width="50" height="50" relative="1" as="geometry">
            <mxPoint x="36" y="542" as="sourcePoint" />
            <mxPoint x="86" y="492" as="targetPoint" />
          </mxGeometry>
        </mxCell>
        <mxCell id="c_rGyp08pGOtF22zNN7b-12" value="" style="endArrow=none;html=1;rounded=0;entryX=0;entryY=0.5;entryDx=0;entryDy=0;fontSize=23;" parent="1" target="c_rGyp08pGOtF22zNN7b-1" edge="1">
          <mxGeometry width="50" height="50" relative="1" as="geometry">
            <mxPoint x="47" y="552" as="sourcePoint" />
            <mxPoint x="86" y="492" as="targetPoint" />
          </mxGeometry>
        </mxCell>
        <mxCell id="c_rGyp08pGOtF22zNN7b-13" value="属于" style="rhombus;whiteSpace=wrap;html=1;fontSize=23;" parent="1" vertex="1">
          <mxGeometry x="-221" y="699" width="80" height="80" as="geometry" />
        </mxCell>
        <mxCell id="c_rGyp08pGOtF22zNN7b-14" value="" style="endArrow=none;html=1;rounded=0;entryX=0.5;entryY=1;entryDx=0;entryDy=0;exitX=0.5;exitY=0;exitDx=0;exitDy=0;fontSize=23;" parent="1" source="c_rGyp08pGOtF22zNN7b-13" target="c_rGyp08pGOtF22zNN7b-1" edge="1">
          <mxGeometry width="50" height="50" relative="1" as="geometry">
            <mxPoint x="36" y="542" as="sourcePoint" />
            <mxPoint x="86" y="492" as="targetPoint" />
            <Array as="points">
              <mxPoint x="-181" y="648" />
              <mxPoint x="206" y="648" />
            </Array>
          </mxGeometry>
        </mxCell>
        <mxCell id="c_rGyp08pGOtF22zNN7b-15" value="" style="endArrow=none;html=1;rounded=0;exitX=0.5;exitY=1;exitDx=0;exitDy=0;fontSize=23;" parent="1" source="c_rGyp08pGOtF22zNN7b-13" edge="1">
          <mxGeometry width="50" height="50" relative="1" as="geometry">
            <mxPoint x="36" y="542" as="sourcePoint" />
            <mxPoint x="-181" y="864" as="targetPoint" />
          </mxGeometry>
        </mxCell>
        <mxCell id="c_rGyp08pGOtF22zNN7b-16" value="" style="endArrow=none;html=1;rounded=0;fontSize=23;" parent="1" edge="1">
          <mxGeometry width="50" height="50" relative="1" as="geometry">
            <mxPoint x="205.29" y="870" as="sourcePoint" />
            <mxPoint x="205.29" y="771" as="targetPoint" />
          </mxGeometry>
        </mxCell>
        <mxCell id="c_rGyp08pGOtF22zNN7b-17" value="展示" style="rhombus;whiteSpace=wrap;html=1;fontSize=23;" parent="1" vertex="1">
          <mxGeometry x="390" y="510" width="80" height="80" as="geometry" />
        </mxCell>
        <mxCell id="c_rGyp08pGOtF22zNN7b-18" value="展示" style="rhombus;whiteSpace=wrap;html=1;fontSize=23;" parent="1" vertex="1">
          <mxGeometry x="825" y="510" width="80" height="80" as="geometry" />
        </mxCell>
        <mxCell id="c_rGyp08pGOtF22zNN7b-19" value="" style="endArrow=none;html=1;rounded=0;entryX=1;entryY=0.5;entryDx=0;entryDy=0;exitX=0;exitY=0.5;exitDx=0;exitDy=0;fontSize=23;" parent="1" source="c_rGyp08pGOtF22zNN7b-17" target="c_rGyp08pGOtF22zNN7b-1" edge="1">
          <mxGeometry width="50" height="50" relative="1" as="geometry">
            <mxPoint x="558" y="542" as="sourcePoint" />
            <mxPoint x="608" y="492" as="targetPoint" />
          </mxGeometry>
        </mxCell>
        <mxCell id="c_rGyp08pGOtF22zNN7b-20" value="" style="endArrow=none;html=1;rounded=0;exitX=0;exitY=0.5;exitDx=0;exitDy=0;fontSize=23;" parent="1" edge="1">
          <mxGeometry width="50" height="50" relative="1" as="geometry">
            <mxPoint x="590" y="549" as="sourcePoint" />
            <mxPoint x="468" y="551" as="targetPoint" />
          </mxGeometry>
        </mxCell>
        <mxCell id="c_rGyp08pGOtF22zNN7b-21" value="" style="endArrow=none;html=1;rounded=0;exitX=1;exitY=0.5;exitDx=0;exitDy=0;entryX=0;entryY=0.5;entryDx=0;entryDy=0;fontSize=23;" parent="1" source="c_rGyp08pGOtF22zNN7b-5" target="c_rGyp08pGOtF22zNN7b-18" edge="1">
          <mxGeometry width="50" height="50" relative="1" as="geometry">
            <mxPoint x="1191" y="539" as="sourcePoint" />
            <mxPoint x="1241" y="489" as="targetPoint" />
          </mxGeometry>
        </mxCell>
        <mxCell id="c_rGyp08pGOtF22zNN7b-22" value="" style="endArrow=none;html=1;rounded=0;exitX=1;exitY=0.5;exitDx=0;exitDy=0;fontSize=23;" parent="1" source="c_rGyp08pGOtF22zNN7b-18" target="c_rGyp08pGOtF22zNN7b-2" edge="1">
          <mxGeometry width="50" height="50" relative="1" as="geometry">
            <mxPoint x="1191" y="539" as="sourcePoint" />
            <mxPoint x="1241" y="489" as="targetPoint" />
          </mxGeometry>
        </mxCell>
        <mxCell id="c_rGyp08pGOtF22zNN7b-23" value="属于" style="rhombus;whiteSpace=wrap;html=1;fontSize=23;" parent="1" vertex="1">
          <mxGeometry x="165" y="690" width="80" height="80" as="geometry" />
        </mxCell>
        <mxCell id="c_rGyp08pGOtF22zNN7b-24" value="" style="endArrow=none;html=1;rounded=0;fontSize=23;" parent="1" edge="1">
          <mxGeometry width="50" height="50" relative="1" as="geometry">
            <mxPoint x="206" y="695" as="sourcePoint" />
            <mxPoint x="206" y="645" as="targetPoint" />
          </mxGeometry>
        </mxCell>
        <mxCell id="c_rGyp08pGOtF22zNN7b-26" value="&lt;font style=&quot;font-size: 23px;&quot;&gt;店铺&lt;/font&gt;" style="rounded=0;whiteSpace=wrap;html=1;fontColor=default;fontSize=23;" parent="1" vertex="1">
          <mxGeometry x="156" y="529" width="100" height="40" as="geometry" />
        </mxCell>
        <mxCell id="c_rGyp08pGOtF22zNN7b-27" value="&lt;span style=&quot;font-size: 23px;&quot;&gt;banner组&lt;br style=&quot;font-size: 23px;&quot;&gt;&lt;/span&gt;" style="rounded=0;whiteSpace=wrap;html=1;fontColor=default;fontSize=23;" parent="1" vertex="1">
          <mxGeometry x="1056" y="529" width="100" height="40" as="geometry" />
        </mxCell>
        <mxCell id="c_rGyp08pGOtF22zNN7b-28" value="&lt;span style=&quot;font-size: 23px;&quot;&gt;用户&lt;/span&gt;" style="rounded=0;whiteSpace=wrap;html=1;fontColor=default;fontSize=23;" parent="1" vertex="1">
          <mxGeometry x="-228" y="867" width="100" height="40" as="geometry" />
        </mxCell>
        <mxCell id="c_rGyp08pGOtF22zNN7b-29" value="&lt;font style=&quot;font-size: 23px;&quot;&gt;订单&lt;/font&gt;" style="rounded=0;whiteSpace=wrap;html=1;fontColor=default;fontSize=23;" parent="1" vertex="1">
          <mxGeometry x="153" y="867" width="100" height="40" as="geometry" />
        </mxCell>
        <mxCell id="c_rGyp08pGOtF22zNN7b-30" value="&lt;span style=&quot;font-size: 23px;&quot;&gt;商品&lt;/span&gt;" style="rounded=0;whiteSpace=wrap;html=1;fontColor=default;fontSize=23;" parent="1" vertex="1">
          <mxGeometry x="-231" y="240" width="100" height="40" as="geometry" />
        </mxCell>
        <mxCell id="c_rGyp08pGOtF22zNN7b-31" value="&lt;span style=&quot;font-size: 23px;&quot;&gt;banner&lt;/span&gt;" style="rounded=0;whiteSpace=wrap;html=1;fontColor=default;fontSize=23;" parent="1" vertex="1">
          <mxGeometry x="588" y="527" width="100" height="40" as="geometry" />
        </mxCell>
        <mxCell id="c_rGyp08pGOtF22zNN7b-32" value="&lt;font style=&quot;font-size: 23px;&quot;&gt;管理员&lt;/font&gt;" style="rounded=0;whiteSpace=wrap;html=1;fontColor=default;fontSize=23;" parent="1" vertex="1">
          <mxGeometry x="-228" y="529" width="100" height="40" as="geometry" />
        </mxCell>
        <mxCell id="c_rGyp08pGOtF22zNN7b-33" value="&lt;span style=&quot;font-size: 23px;&quot;&gt;tabbar&lt;/span&gt;" style="rounded=0;whiteSpace=wrap;html=1;fontColor=default;fontSize=23;" parent="1" vertex="1">
          <mxGeometry x="156" y="240" width="100" height="40" as="geometry" />
        </mxCell>
        <mxCell id="c_rGyp08pGOtF22zNN7b-43" value="属于" style="rhombus;whiteSpace=wrap;html=1;fontSize=23;" parent="1" vertex="1">
          <mxGeometry x="-218" y="360" width="80" height="80" as="geometry" />
        </mxCell>
        <mxCell id="c_rGyp08pGOtF22zNN7b-44" value="" style="endArrow=none;html=1;rounded=0;entryX=0.5;entryY=1;entryDx=0;entryDy=0;fontSize=23;" parent="1" target="c_rGyp08pGOtF22zNN7b-30" edge="1">
          <mxGeometry width="50" height="50" relative="1" as="geometry">
            <mxPoint x="-180" y="362" as="sourcePoint" />
            <mxPoint x="-130" y="312" as="targetPoint" />
          </mxGeometry>
        </mxCell>
        <mxCell id="c_rGyp08pGOtF22zNN7b-45" value="属于" style="rhombus;whiteSpace=wrap;html=1;fontSize=23;" parent="1" vertex="1">
          <mxGeometry x="163" y="336" width="80" height="80" as="geometry" />
        </mxCell>
        <mxCell id="c_rGyp08pGOtF22zNN7b-46" value="" style="endArrow=none;html=1;rounded=0;entryX=0.5;entryY=1;entryDx=0;entryDy=0;fontSize=23;" parent="1" target="c_rGyp08pGOtF22zNN7b-45" edge="1">
          <mxGeometry width="50" height="50" relative="1" as="geometry">
            <mxPoint x="203" y="486" as="sourcePoint" />
            <mxPoint x="538.3399999999999" y="420" as="targetPoint" />
            <Array as="points" />
          </mxGeometry>
        </mxCell>
        <mxCell id="c_rGyp08pGOtF22zNN7b-47" value="" style="endArrow=none;html=1;rounded=0;fontSize=23;" parent="1" edge="1">
          <mxGeometry width="50" height="50" relative="1" as="geometry">
            <mxPoint x="204" y="531" as="sourcePoint" />
            <mxPoint x="-180" y="441" as="targetPoint" />
            <Array as="points">
              <mxPoint x="204" y="480" />
              <mxPoint x="-180" y="480" />
            </Array>
          </mxGeometry>
        </mxCell>
        <mxCell id="c_rGyp08pGOtF22zNN7b-48" value="" style="endArrow=none;html=1;rounded=0;exitX=0.5;exitY=0;exitDx=0;exitDy=0;fontSize=23;" parent="1" source="c_rGyp08pGOtF22zNN7b-45" edge="1">
          <mxGeometry width="50" height="50" relative="1" as="geometry">
            <mxPoint x="561" y="545" as="sourcePoint" />
            <mxPoint x="204" y="282" as="targetPoint" />
            <Array as="points" />
          </mxGeometry>
        </mxCell>
        <mxCell id="c_rGyp08pGOtF22zNN7b-49" value="拥有" style="rhombus;whiteSpace=wrap;html=1;fontSize=23;" parent="1" vertex="1">
          <mxGeometry x="-33" y="510" width="80" height="80" as="geometry" />
        </mxCell>
        <mxCell id="c_rGyp08pGOtF22zNN7b-50" value="" style="endArrow=none;html=1;rounded=0;entryX=1;entryY=0.5;entryDx=0;entryDy=0;exitX=0;exitY=0.5;exitDx=0;exitDy=0;fontSize=23;" parent="1" source="c_rGyp08pGOtF22zNN7b-49" target="c_rGyp08pGOtF22zNN7b-32" edge="1">
          <mxGeometry width="50" height="50" relative="1" as="geometry">
            <mxPoint x="36" y="542" as="sourcePoint" />
            <mxPoint x="86" y="492" as="targetPoint" />
          </mxGeometry>
        </mxCell>
        <mxCell id="c_rGyp08pGOtF22zNN7b-51" value="" style="endArrow=none;html=1;rounded=0;entryX=0;entryY=0.5;entryDx=0;entryDy=0;fontSize=23;" parent="1" target="c_rGyp08pGOtF22zNN7b-26" edge="1">
          <mxGeometry width="50" height="50" relative="1" as="geometry">
            <mxPoint x="47" y="552" as="sourcePoint" />
            <mxPoint x="86" y="492" as="targetPoint" />
          </mxGeometry>
        </mxCell>
        <mxCell id="c_rGyp08pGOtF22zNN7b-52" value="属于" style="rhombus;whiteSpace=wrap;html=1;fontSize=23;" parent="1" vertex="1">
          <mxGeometry x="-221" y="699" width="80" height="80" as="geometry" />
        </mxCell>
        <mxCell id="c_rGyp08pGOtF22zNN7b-53" value="" style="endArrow=none;html=1;rounded=0;entryX=0.5;entryY=1;entryDx=0;entryDy=0;exitX=0.5;exitY=0;exitDx=0;exitDy=0;fontSize=23;" parent="1" source="c_rGyp08pGOtF22zNN7b-52" target="c_rGyp08pGOtF22zNN7b-26" edge="1">
          <mxGeometry width="50" height="50" relative="1" as="geometry">
            <mxPoint x="36" y="542" as="sourcePoint" />
            <mxPoint x="86" y="492" as="targetPoint" />
            <Array as="points">
              <mxPoint x="-181" y="648" />
              <mxPoint x="206" y="648" />
            </Array>
          </mxGeometry>
        </mxCell>
        <mxCell id="c_rGyp08pGOtF22zNN7b-54" value="" style="endArrow=none;html=1;rounded=0;exitX=0.5;exitY=1;exitDx=0;exitDy=0;fontSize=23;" parent="1" source="c_rGyp08pGOtF22zNN7b-52" edge="1">
          <mxGeometry width="50" height="50" relative="1" as="geometry">
            <mxPoint x="36" y="542" as="sourcePoint" />
            <mxPoint x="-181" y="864" as="targetPoint" />
          </mxGeometry>
        </mxCell>
        <mxCell id="c_rGyp08pGOtF22zNN7b-55" value="" style="endArrow=none;html=1;rounded=0;fontSize=23;" parent="1" edge="1">
          <mxGeometry width="50" height="50" relative="1" as="geometry">
            <mxPoint x="205.29" y="870" as="sourcePoint" />
            <mxPoint x="205.29" y="771" as="targetPoint" />
          </mxGeometry>
        </mxCell>
        <mxCell id="c_rGyp08pGOtF22zNN7b-56" value="展示" style="rhombus;whiteSpace=wrap;html=1;fontSize=23;" parent="1" vertex="1">
          <mxGeometry x="390" y="510" width="80" height="80" as="geometry" />
        </mxCell>
        <mxCell id="c_rGyp08pGOtF22zNN7b-57" value="展示" style="rhombus;whiteSpace=wrap;html=1;fontSize=23;" parent="1" vertex="1">
          <mxGeometry x="825" y="510" width="80" height="80" as="geometry" />
        </mxCell>
        <mxCell id="c_rGyp08pGOtF22zNN7b-58" value="" style="endArrow=none;html=1;rounded=0;entryX=1;entryY=0.5;entryDx=0;entryDy=0;exitX=0;exitY=0.5;exitDx=0;exitDy=0;fontSize=23;" parent="1" source="c_rGyp08pGOtF22zNN7b-56" target="c_rGyp08pGOtF22zNN7b-26" edge="1">
          <mxGeometry width="50" height="50" relative="1" as="geometry">
            <mxPoint x="558" y="542" as="sourcePoint" />
            <mxPoint x="608" y="492" as="targetPoint" />
          </mxGeometry>
        </mxCell>
        <mxCell id="c_rGyp08pGOtF22zNN7b-59" value="" style="endArrow=none;html=1;rounded=0;exitX=0;exitY=0.5;exitDx=0;exitDy=0;fontSize=23;" parent="1" edge="1">
          <mxGeometry width="50" height="50" relative="1" as="geometry">
            <mxPoint x="590" y="549" as="sourcePoint" />
            <mxPoint x="468" y="551" as="targetPoint" />
          </mxGeometry>
        </mxCell>
        <mxCell id="c_rGyp08pGOtF22zNN7b-61" value="" style="endArrow=none;html=1;rounded=0;exitX=1;exitY=0.5;exitDx=0;exitDy=0;fontSize=23;" parent="1" source="c_rGyp08pGOtF22zNN7b-57" target="c_rGyp08pGOtF22zNN7b-27" edge="1">
          <mxGeometry width="50" height="50" relative="1" as="geometry">
            <mxPoint x="1191" y="539" as="sourcePoint" />
            <mxPoint x="1241" y="489" as="targetPoint" />
          </mxGeometry>
        </mxCell>
        <mxCell id="c_rGyp08pGOtF22zNN7b-80" value="商品状态" style="ellipse;whiteSpace=wrap;html=1;fontSize=23;" parent="1" vertex="1">
          <mxGeometry x="-798" y="-9" width="120" height="40" as="geometry" />
        </mxCell>
        <mxCell id="c_rGyp08pGOtF22zNN7b-93" value="商品描述" style="ellipse;whiteSpace=wrap;html=1;fontSize=23;" parent="1" vertex="1">
          <mxGeometry x="-930" y="-9" width="120" height="40" as="geometry" />
        </mxCell>
        <mxCell id="c_rGyp08pGOtF22zNN7b-94" value="商品上架时间" style="ellipse;whiteSpace=wrap;html=1;fontSize=23;" parent="1" vertex="1">
          <mxGeometry x="-1062" y="-9" width="120" height="40" as="geometry" />
        </mxCell>
        <mxCell id="c_rGyp08pGOtF22zNN7b-95" value="商品类型" style="ellipse;whiteSpace=wrap;html=1;fontSize=23;" parent="1" vertex="1">
          <mxGeometry x="-1191" y="-9" width="120" height="40" as="geometry" />
        </mxCell>
        <mxCell id="c_rGyp08pGOtF22zNN7b-96" value="商品所属店铺id" style="ellipse;whiteSpace=wrap;html=1;fontSize=23;" parent="1" vertex="1">
          <mxGeometry x="-1320" y="-9" width="120" height="40" as="geometry" />
        </mxCell>
        <mxCell id="c_rGyp08pGOtF22zNN7b-97" value="商品价格" style="ellipse;whiteSpace=wrap;html=1;fontSize=23;" parent="1" vertex="1">
          <mxGeometry x="-1449" y="-9" width="120" height="40" as="geometry" />
        </mxCell>
        <mxCell id="c_rGyp08pGOtF22zNN7b-104" value="店铺权限" style="ellipse;whiteSpace=wrap;html=1;fontSize=23;" parent="1" vertex="1">
          <mxGeometry x="975" y="-6" width="120" height="40" as="geometry" />
        </mxCell>
        <mxCell id="c_rGyp08pGOtF22zNN7b-105" value="店铺用户名" style="ellipse;whiteSpace=wrap;html=1;fontSize=23;" parent="1" vertex="1">
          <mxGeometry x="1116" y="-6" width="120" height="40" as="geometry" />
        </mxCell>
        <mxCell id="c_rGyp08pGOtF22zNN7b-106" value="店铺密码" style="ellipse;whiteSpace=wrap;html=1;fontSize=23;" parent="1" vertex="1">
          <mxGeometry x="1257" y="-6" width="120" height="40" as="geometry" />
        </mxCell>
        <mxCell id="c_rGyp08pGOtF22zNN7b-107" value="店铺banner组" style="ellipse;whiteSpace=wrap;html=1;fontSize=23;" parent="1" vertex="1">
          <mxGeometry x="1389" y="-6" width="120" height="40" as="geometry" />
        </mxCell>
        <mxCell id="c_rGyp08pGOtF22zNN7b-108" value="店铺背景图" style="ellipse;whiteSpace=wrap;html=1;fontSize=23;" parent="1" vertex="1">
          <mxGeometry x="1527" y="-6" width="120" height="40" as="geometry" />
        </mxCell>
        <mxCell id="c_rGyp08pGOtF22zNN7b-109" value="店铺logo" style="ellipse;whiteSpace=wrap;html=1;fontSize=23;" parent="1" vertex="1">
          <mxGeometry x="1659" y="-6" width="120" height="40" as="geometry" />
        </mxCell>
        <mxCell id="c_rGyp08pGOtF22zNN7b-127" value="过期时间" style="ellipse;whiteSpace=wrap;html=1;fontSize=23;" parent="1" vertex="1">
          <mxGeometry x="-798" y="1050" width="120" height="40" as="geometry" />
        </mxCell>
        <mxCell id="c_rGyp08pGOtF22zNN7b-128" value="头像" style="ellipse;whiteSpace=wrap;html=1;fontSize=23;" parent="1" vertex="1">
          <mxGeometry x="-933" y="1050" width="120" height="40" as="geometry" />
        </mxCell>
        <mxCell id="c_rGyp08pGOtF22zNN7b-129" value="店铺id" style="ellipse;whiteSpace=wrap;html=1;fontSize=23;" parent="1" vertex="1">
          <mxGeometry x="-1059" y="1050" width="120" height="40" as="geometry" />
        </mxCell>
        <mxCell id="c_rGyp08pGOtF22zNN7b-130" value="属于" style="rhombus;whiteSpace=wrap;html=1;fontSize=23;" parent="1" vertex="1">
          <mxGeometry x="165" y="690" width="80" height="80" as="geometry" />
        </mxCell>
        <mxCell id="c_rGyp08pGOtF22zNN7b-131" value="" style="endArrow=none;html=1;rounded=0;fontSize=23;" parent="1" edge="1">
          <mxGeometry width="50" height="50" relative="1" as="geometry">
            <mxPoint x="206" y="695" as="sourcePoint" />
            <mxPoint x="206" y="645" as="targetPoint" />
          </mxGeometry>
        </mxCell>
        <mxCell id="c_rGyp08pGOtF22zNN7b-160" value="&lt;font style=&quot;font-size: 23px;&quot;&gt;n&lt;/font&gt;" style="text;strokeColor=none;align=center;fillColor=none;html=1;verticalAlign=middle;whiteSpace=wrap;rounded=0;fontSize=23;" parent="1" vertex="1">
          <mxGeometry x="-180" y="280" width="60" height="30" as="geometry" />
        </mxCell>
        <mxCell id="c_rGyp08pGOtF22zNN7b-162" value="1" style="text;strokeColor=none;align=center;fillColor=none;html=1;verticalAlign=middle;whiteSpace=wrap;rounded=0;fontSize=23;" parent="1" vertex="1">
          <mxGeometry x="140" y="450" width="60" height="30" as="geometry" />
        </mxCell>
        <mxCell id="c_rGyp08pGOtF22zNN7b-163" value="&lt;font style=&quot;font-size: 23px;&quot;&gt;n&lt;/font&gt;" style="text;strokeColor=none;align=center;fillColor=none;html=1;verticalAlign=middle;whiteSpace=wrap;rounded=0;fontSize=23;" parent="1" vertex="1">
          <mxGeometry x="200" y="280" width="60" height="30" as="geometry" />
        </mxCell>
        <mxCell id="c_rGyp08pGOtF22zNN7b-164" value="1" style="text;strokeColor=none;align=center;fillColor=none;html=1;verticalAlign=middle;whiteSpace=wrap;rounded=0;fontSize=23;" parent="1" vertex="1">
          <mxGeometry x="200" y="490" width="60" height="30" as="geometry" />
        </mxCell>
        <mxCell id="c_rGyp08pGOtF22zNN7b-165" value="&lt;font style=&quot;font-size: 23px;&quot;&gt;n&lt;/font&gt;" style="text;strokeColor=none;align=center;fillColor=none;html=1;verticalAlign=middle;whiteSpace=wrap;rounded=0;fontSize=23;" parent="1" vertex="1">
          <mxGeometry x="200" y="837" width="60" height="30" as="geometry" />
        </mxCell>
        <mxCell id="c_rGyp08pGOtF22zNN7b-166" value="1" style="text;strokeColor=none;align=center;fillColor=none;html=1;verticalAlign=middle;whiteSpace=wrap;rounded=0;fontSize=23;" parent="1" vertex="1">
          <mxGeometry x="200" y="585" width="60" height="30" as="geometry" />
        </mxCell>
        <mxCell id="c_rGyp08pGOtF22zNN7b-167" value="1" style="text;strokeColor=none;align=center;fillColor=none;html=1;verticalAlign=middle;whiteSpace=wrap;rounded=0;fontSize=23;" parent="1" vertex="1">
          <mxGeometry x="140" y="650" width="60" height="30" as="geometry" />
        </mxCell>
        <mxCell id="c_rGyp08pGOtF22zNN7b-168" value="&lt;font style=&quot;font-size: 23px;&quot;&gt;n&lt;/font&gt;" style="text;strokeColor=none;align=center;fillColor=none;html=1;verticalAlign=middle;whiteSpace=wrap;rounded=0;fontSize=23;" parent="1" vertex="1">
          <mxGeometry x="-180" y="830" width="60" height="30" as="geometry" />
        </mxCell>
        <mxCell id="c_rGyp08pGOtF22zNN7b-169" value="&lt;span style=&quot;font-size: 23px;&quot;&gt;1&lt;/span&gt;" style="text;strokeColor=none;align=center;fillColor=none;html=1;verticalAlign=middle;whiteSpace=wrap;rounded=0;fontSize=23;" parent="1" vertex="1">
          <mxGeometry x="-128" y="520" width="60" height="30" as="geometry" />
        </mxCell>
        <mxCell id="c_rGyp08pGOtF22zNN7b-170" value="&lt;span style=&quot;font-size: 23px;&quot;&gt;n&lt;/span&gt;" style="text;strokeColor=none;align=center;fillColor=none;html=1;verticalAlign=middle;whiteSpace=wrap;rounded=0;fontSize=23;" parent="1" vertex="1">
          <mxGeometry x="93" y="520" width="60" height="30" as="geometry" />
        </mxCell>
        <mxCell id="c_rGyp08pGOtF22zNN7b-171" value="1" style="text;strokeColor=none;align=center;fillColor=none;html=1;verticalAlign=middle;whiteSpace=wrap;rounded=0;fontSize=23;" parent="1" vertex="1">
          <mxGeometry x="256" y="520" width="60" height="30" as="geometry" />
        </mxCell>
        <mxCell id="c_rGyp08pGOtF22zNN7b-172" value="&lt;font style=&quot;font-size: 23px;&quot;&gt;n&lt;/font&gt;" style="text;strokeColor=none;align=center;fillColor=none;html=1;verticalAlign=middle;whiteSpace=wrap;rounded=0;fontSize=23;" parent="1" vertex="1">
          <mxGeometry x="528" y="520" width="60" height="30" as="geometry" />
        </mxCell>
        <mxCell id="c_rGyp08pGOtF22zNN7b-174" value="" style="endArrow=none;html=1;rounded=0;exitX=1;exitY=0.5;exitDx=0;exitDy=0;entryX=0;entryY=0.5;entryDx=0;entryDy=0;fontSize=23;" parent="1" source="c_rGyp08pGOtF22zNN7b-31" target="c_rGyp08pGOtF22zNN7b-173" edge="1">
          <mxGeometry width="50" height="50" relative="1" as="geometry">
            <mxPoint x="688" y="547" as="sourcePoint" />
            <mxPoint x="825" y="550" as="targetPoint" />
          </mxGeometry>
        </mxCell>
        <mxCell id="c_rGyp08pGOtF22zNN7b-173" value="m" style="text;strokeColor=none;align=center;fillColor=none;html=1;verticalAlign=middle;whiteSpace=wrap;rounded=0;fontSize=23;" parent="1" vertex="1">
          <mxGeometry x="688" y="520" width="60" height="30" as="geometry" />
        </mxCell>
        <mxCell id="c_rGyp08pGOtF22zNN7b-177" value="&lt;font style=&quot;font-size: 23px;&quot;&gt;n&lt;/font&gt;" style="text;strokeColor=none;align=center;fillColor=none;html=1;verticalAlign=middle;whiteSpace=wrap;rounded=0;fontSize=23;" parent="1" vertex="1">
          <mxGeometry x="990" y="520" width="60" height="30" as="geometry" />
        </mxCell>
      </root>
    </mxGraphModel>
  </diagram>
</mxfile>
